<?xml version="1.0" encoding="UTF-8" standalone="no"?>
<!-- Generator: Adobe Illustrator 24.0.0, SVG Export Plug-In . SVG Version: 6.00 Build 0)  -->

<svg
   version="1.1"
   id="Capa_2"
   x="0px"
   y="0px"
   viewBox="0 0 139.46471 99.992218"
   xml:space="preserve"
   sodipodi:docname="Patron.svg"
   width="139.46471"
   height="99.992218"
   inkscape:export-filename="Pattern.svg"
   inkscape:export-xdpi="96"
   inkscape:export-ydpi="96"
   xmlns:inkscape="http://www.inkscape.org/namespaces/inkscape"
   xmlns:sodipodi="http://sodipodi.sourceforge.net/DTD/sodipodi-0.dtd"
   xmlns:xlink="http://www.w3.org/1999/xlink"
   xmlns="http://www.w3.org/2000/svg"
   xmlns:svg="http://www.w3.org/2000/svg"><defs
   id="defs27"><clipPath
     clipPathUnits="userSpaceOnUse"
     id="clipPath24516"><rect
       style="fill:none;stroke:#000000;stroke-opacity:1"
       id="rect24518"
       width="139.46471"
       height="99.992218"
       x="67.953537"
       y="90.485046" /></clipPath></defs><sodipodi:namedview
   id="namedview25"
   pagecolor="#505050"
   bordercolor="#eeeeee"
   borderopacity="1"
   inkscape:showpageshadow="0"
   inkscape:pageopacity="0"
   inkscape:pagecheckerboard="0"
   inkscape:deskcolor="#505050"
   showgrid="false"
   showguides="false"
   inkscape:lockguides="true"><sodipodi:guide
     position="137.40821,1025.3539"
     orientation="0,-1"
     id="guide9122"
     inkscape:locked="true" /><sodipodi:guide
     position="137.15589,953.676"
     orientation="0,-1"
     id="guide9124"
     inkscape:locked="true" /><sodipodi:guide
     position="112.96887,990.46118"
     orientation="1,0"
     id="guide9126"
     inkscape:locked="true" /><sodipodi:guide
     position="161.90314,987.96092"
     orientation="1,0"
     id="guide9128"
     inkscape:locked="true" /><sodipodi:guide
     position="137.15589,953.676"
     orientation="1,0"
     id="guide16448"
     inkscape:locked="true" /><sodipodi:guide
     position="161.90314,989.51495"
     orientation="0,-1"
     id="guide16450"
     inkscape:locked="true" /><sodipodi:guide
     position="67.442651,975.35684"
     orientation="0,-1"
     id="guide17904"
     inkscape:locked="true" /><sodipodi:guide
     position="42.986406,946.87341"
     orientation="1,0"
     id="guide19358"
     inkscape:locked="true" /><sodipodi:guide
     position="67.953537,903.17894"
     orientation="1,0"
     id="guide19410"
     inkscape:locked="true" /><sodipodi:guide
     position="43.486404,939.01789"
     orientation="0,-1"
     id="guide19412"
     inkscape:locked="true" /><sodipodi:guide
     position="231.88537,939.01789"
     orientation="1,0"
     id="guide19414"
     inkscape:locked="true" /><sodipodi:guide
     position="134.30823,853.68378"
     orientation="0,-1"
     id="guide20872"
     inkscape:locked="true" /><sodipodi:guide
     position="161.90314,889.52273"
     orientation="0,-1"
     id="guide22328"
     inkscape:locked="true" /><sodipodi:guide
     position="207.41824,903.67894"
     orientation="1,0"
     id="guide22330"
     inkscape:locked="true" /></sodipodi:namedview>
<style
   type="text/css"
   id="style2">
	.st0{fill:none;}
	.st1{fill:#80808013;}
	.st2{fill:url(#SVGID_1_);}
</style>
<pattern
   width="140"
   height="100"
   patternUnits="userSpaceOnUse"
   id="Motivo_nuevo"
   viewBox="28 -140.3 140 100"
   style="overflow:visible">
	<g
   id="g16">
		<rect
   x="28"
   y="-140.3"
   class="st0"
   width="140"
   height="100"
   id="rect4" />
		<path
   class="st1"
   d="M142.2-14.4c-1.3-2.9-2.1-6.1-2.2-9.4c0-0.4,0-0.9,0-1.4v-21.6l0,0c0-0.3,0-0.5,0-0.8v-1.4h0.1    c0.4-5.8,2.9-11.3,7.1-15.5c9.5-9.5,25.1-9.5,34.6,0c2.1,2.1,3.8,4.5,5,7.2c1.3,3,2.1,6.1,2.1,9.4c0,0.4,0,0.9,0,1.4v21.6l0,0    c0,0.3,0,0.5,0,0.8v1.4h-0.1c-0.4,5.8-2.9,11.3-7.1,15.5C177.1-2.5,171,0,164.4,0c-6.5,0-12.7-2.5-17.3-7.2    C145.1-9.3,143.4-11.7,142.2-14.4L142.2-14.4z M179.1-9.7c3.5-3.5,5.6-8,6-12.9h-20c-0.4,0-0.9,0-1.4,0c-3.3-0.1-6.4-0.8-9.4-2.1    c-2.7-1.2-5.1-2.9-7.2-5c-1.4-1.3-2.5-2.8-3.5-4.4v9.1c0,0.4,0,0.8,0,1.2c0.1,2.8,0.7,5.4,1.8,7.9c1.1,2.3,2.5,4.4,4.3,6.2    C157.9-1.6,171-1.6,179.1-9.7L179.1-9.7z M143.8-45.2c0.4,4.8,2.5,9.4,6,12.8c1.8,1.8,3.9,3.2,6.2,4.3c2.5,1.1,5.2,1.7,7.9,1.8    c0.4,0,0.8,0,1.2,0h20.1c-0.4-4.8-2.5-9.4-6-12.8c-1.8-1.8-3.9-3.2-6.2-4.3c-2.5-1.1-5.2-1.7-7.9-1.8c-0.4,0-0.8,0-1.2,0H143.8    L143.8-45.2z M149.8-61.8c-3.5,3.5-5.6,8-6,12.9h20c0.2,0,0.4,0,0.7,0c0.2,0,0.5,0,0.7,0c3.3,0.1,6.4,0.8,9.4,2.1    c2.7,1.2,5.1,2.9,7.2,5c1.4,1.3,2.5,2.8,3.5,4.4v-9.1c0-0.4,0-0.8,0-1.2c-0.1-2.8-0.7-5.4-1.8-7.9c-1.1-2.3-2.5-4.4-4.3-6.2    C171-69.9,157.9-69.9,149.8-61.8L149.8-61.8z"
   id="path6" />
		<path
   class="st1"
   d="M2.2-14.4c-1.3-2.9-2.1-6.1-2.2-9.4c0-0.4,0-0.9,0-1.4v-21.6l0,0c0-0.3,0-0.5,0-0.8v-1.4h0.1    c0.4-5.8,2.9-11.3,7.1-15.5c9.5-9.5,25.1-9.5,34.6,0c2.1,2.1,3.8,4.5,5,7.2c1.3,3,2.1,6.1,2.1,9.4c0,0.4,0,0.9,0,1.4v21.6l0,0    c0,0.3,0,0.5,0,0.8v1.4h-0.1c-0.4,5.8-2.9,11.3-7.1,15.5C37.1-2.5,31,0,24.4,0S11.8-2.5,7.2-7.2C5.1-9.3,3.4-11.7,2.2-14.4    L2.2-14.4z M39.1-9.7c3.5-3.5,5.6-8,6-12.9h-20c-0.4,0-0.9,0-1.4,0c-3.3-0.1-6.4-0.8-9.4-2.1c-2.7-1.2-5.1-2.9-7.2-5    c-1.4-1.3-2.5-2.8-3.5-4.4v9.1c0,0.4,0,0.8,0,1.2c0.1,2.8,0.7,5.4,1.8,7.9c1.1,2.3,2.5,4.4,4.3,6.2C17.9-1.6,31-1.6,39.1-9.7    L39.1-9.7z M3.8-45.2c0.4,4.8,2.5,9.4,6,12.8c1.8,1.8,3.9,3.2,6.2,4.3c2.5,1.1,5.2,1.7,7.9,1.8c0.4,0,0.8,0,1.2,0h20.1    c-0.4-4.8-2.5-9.4-6-12.8c-1.8-1.8-3.9-3.2-6.2-4.3c-2.5-1.1-5.2-1.7-7.9-1.8c-0.4,0-0.8,0-1.2,0H3.8L3.8-45.2z M9.8-61.8    c-3.5,3.5-5.6,8-6,12.9h20c0.2,0,0.4,0,0.7,0s0.5,0,0.7,0c3.3,0.1,6.4,0.8,9.4,2.1c2.7,1.2,5.1,2.9,7.2,5c1.4,1.3,2.5,2.8,3.5,4.4    v-9.1c0-0.4,0-0.8,0-1.2c-0.1-2.8-0.7-5.4-1.8-7.9c-1.1-2.3-2.5-4.4-4.3-6.2C31-69.9,17.9-69.9,9.8-61.8L9.8-61.8z"
   id="path8" />
		<path
   class="st1"
   d="M142.2-114.4c-1.3-2.9-2.1-6.1-2.2-9.4c0-0.4,0-0.9,0-1.4v-21.6l0,0c0-0.3,0-0.5,0-0.8v-1.4h0.1    c0.4-5.8,2.9-11.3,7.1-15.5c9.5-9.5,25.1-9.5,34.6,0c2.1,2.1,3.8,4.5,5,7.2c1.3,3,2.1,6.1,2.1,9.4c0,0.4,0,0.9,0,1.4v21.6l0,0    c0,0.3,0,0.5,0,0.8v1.4h-0.1c-0.4,5.8-2.9,11.3-7.1,15.5c-4.6,4.6-10.8,7.2-17.3,7.2c-6.5,0-12.7-2.5-17.3-7.2    C145.1-109.3,143.4-111.7,142.2-114.4L142.2-114.4z M179.1-109.7c3.5-3.5,5.6-8,6-12.9h-20c-0.4,0-0.9,0-1.4,0    c-3.3-0.1-6.4-0.8-9.4-2.1c-2.7-1.2-5.1-2.9-7.2-5c-1.4-1.3-2.5-2.8-3.5-4.4v9.1c0,0.4,0,0.8,0,1.2c0.1,2.8,0.7,5.4,1.8,7.9    c1.1,2.3,2.5,4.4,4.3,6.2C157.9-101.6,171-101.6,179.1-109.7L179.1-109.7z M143.8-145.2c0.4,4.8,2.5,9.4,6,12.8    c1.8,1.8,3.9,3.2,6.2,4.3c2.5,1.1,5.2,1.7,7.9,1.8c0.4,0,0.8,0,1.2,0h20.1c-0.4-4.8-2.5-9.4-6-12.8c-1.8-1.8-3.9-3.2-6.2-4.3    c-2.5-1.1-5.2-1.7-7.9-1.8c-0.4,0-0.8,0-1.2,0H143.8L143.8-145.2z M149.8-161.8c-3.5,3.5-5.6,8-6,12.9h20c0.2,0,0.4,0,0.7,0    c0.2,0,0.5,0,0.7,0c3.3,0.1,6.4,0.8,9.4,2.1c2.7,1.2,5.1,2.9,7.2,5c1.4,1.3,2.5,2.8,3.5,4.4v-9.1c0-0.4,0-0.8,0-1.2    c-0.1-2.8-0.7-5.4-1.8-7.9c-1.1-2.3-2.5-4.4-4.3-6.2C171-169.9,157.9-169.9,149.8-161.8L149.8-161.8z"
   id="path10" />
		<path
   class="st1"
   d="M72.2-64.4c-1.3-2.9-2.1-6.1-2.2-9.4c0-0.4,0-0.9,0-1.4v-21.6l0,0c0-0.3,0-0.5,0-0.8v-1.4h0.1    c0.4-5.8,2.9-11.3,7.1-15.5c9.5-9.5,25.1-9.5,34.6,0c2.1,2.1,3.8,4.5,5,7.2c1.3,3,2.1,6.1,2.1,9.4c0,0.4,0,0.9,0,1.4v21.6l0,0    c0,0.3,0,0.5,0,0.8v1.4h-0.1c-0.4,5.8-2.9,11.3-7.1,15.5C107.1-52.5,101-50,94.4-50c-6.5,0-12.7-2.5-17.3-7.2    C75.1-59.3,73.4-61.7,72.2-64.4L72.2-64.4z M109.1-59.7c3.5-3.5,5.6-8,6-12.9h-20c-0.4,0-0.9,0-1.4,0c-3.3-0.1-6.4-0.8-9.4-2.1    c-2.7-1.2-5.1-2.9-7.2-5c-1.4-1.3-2.5-2.8-3.5-4.4v9.1c0,0.4,0,0.8,0,1.2c0.1,2.8,0.7,5.4,1.8,7.9c1.1,2.3,2.5,4.4,4.3,6.2    C87.9-51.6,101-51.6,109.1-59.7L109.1-59.7z M73.8-95.2c0.4,4.8,2.5,9.4,6,12.8c1.8,1.8,3.9,3.2,6.2,4.3c2.5,1.1,5.2,1.7,7.9,1.8    c0.4,0,0.8,0,1.2,0h20.1c-0.4-4.8-2.5-9.4-6-12.8c-1.8-1.8-3.9-3.2-6.2-4.3c-2.5-1.1-5.2-1.7-7.9-1.8c-0.4,0-0.8,0-1.2,0H73.8    L73.8-95.2z M79.8-111.8c-3.5,3.5-5.6,8-6,12.9h20c0.2,0,0.4,0,0.7,0s0.5,0,0.7,0c3.3,0.1,6.4,0.8,9.4,2.1c2.7,1.2,5.1,2.9,7.2,5    c1.4,1.3,2.5,2.8,3.5,4.4v-9.1c0-0.4,0-0.8,0-1.2c-0.1-2.8-0.7-5.4-1.8-7.9c-1.1-2.3-2.5-4.4-4.3-6.2    C101-119.9,87.9-119.9,79.8-111.8L79.8-111.8z"
   id="path12" />
		<path
   class="st1"
   d="M2.2-114.4c-1.3-2.9-2.1-6.1-2.2-9.4c0-0.4,0-0.9,0-1.4v-21.6l0,0c0-0.3,0-0.5,0-0.8v-1.4h0.1    c0.4-5.8,2.9-11.3,7.1-15.5c9.5-9.5,25.1-9.5,34.6,0c2.1,2.1,3.8,4.5,5,7.2c1.3,3,2.1,6.1,2.1,9.4c0,0.4,0,0.9,0,1.4v21.6l0,0    c0,0.3,0,0.5,0,0.8v1.4h-0.1c-0.4,5.8-2.9,11.3-7.1,15.5c-4.6,4.6-10.8,7.2-17.3,7.2s-12.7-2.5-17.3-7.2    C5.1-109.3,3.4-111.7,2.2-114.4L2.2-114.4z M39.1-109.7c3.5-3.5,5.6-8,6-12.9h-20c-0.4,0-0.9,0-1.4,0c-3.3-0.1-6.4-0.8-9.4-2.1    c-2.7-1.2-5.1-2.9-7.2-5c-1.4-1.3-2.5-2.8-3.5-4.4v9.1c0,0.4,0,0.8,0,1.2c0.1,2.8,0.7,5.4,1.8,7.9c1.1,2.3,2.5,4.4,4.3,6.2    C17.9-101.6,31-101.6,39.1-109.7L39.1-109.7z M3.8-145.2c0.4,4.8,2.5,9.4,6,12.8c1.8,1.8,3.9,3.2,6.2,4.3c2.5,1.1,5.2,1.7,7.9,1.8    c0.4,0,0.8,0,1.2,0h20.1c-0.4-4.8-2.5-9.4-6-12.8c-1.8-1.8-3.9-3.2-6.2-4.3c-2.5-1.1-5.2-1.7-7.9-1.8c-0.4,0-0.8,0-1.2,0H3.8    L3.8-145.2z M9.8-161.8c-3.5,3.5-5.6,8-6,12.9h20c0.2,0,0.4,0,0.7,0s0.5,0,0.7,0c3.3,0.1,6.4,0.8,9.4,2.1c2.7,1.2,5.1,2.9,7.2,5    c1.4,1.3,2.5,2.8,3.5,4.4v-9.1c0-0.4,0-0.8,0-1.2c-0.1-2.8-0.7-5.4-1.8-7.9c-1.1-2.3-2.5-4.4-4.3-6.2    C31-169.9,17.9-169.9,9.8-161.8L9.8-161.8z"
   id="path14" />
	</g>
</pattern>

<pattern
   id="SVGID_1_"
   xlink:href="#Motivo_nuevo"
   patternTransform="matrix(1 0 0 1 1 -14)">
</pattern>
<rect
   x="-19"
   y="-14"
   class="st2"
   width="1957"
   height="1109"
   id="rect22"
   style="stroke:#000000;stroke-opacity:1"
   clip-path="url(#clipPath24516)"
   transform="translate(-67.953537,-90.485046)" />
</svg>
